# AST/ASF file generated using VICON BodyLanguage
# -----------------------------------------------
:version 1.10
:name VICON
:units
  mass 1.0
  length 0.45
  angle deg
:documentation
   .ast/.asf automatically generated from VICON data using
   VICON BodyBuilder and BodyLanguage model FoxedUp or BRILLIANT.MOD
:root
   order TX TY TZ RX RY RZ
   axis XYZ
   position 0 0 0  
   orientation 0 0 0 
:bonedata
  begin
     id 1 
     name lhipjoint
     direction 0.621036 -0.695554 0.361275 
     length 2.46325 
     axis 0 0 0  XYZ
  end
  begin
     id 2 
     name lfemur
     direction 0.34202 -0.939693 0  
     length 6.54784  
     axis 0 0 20  XYZ
    dof rx ry rz
    limits (-160.0 20.0)
           (-70.0 70.0)
           (-60.0 70.0)
  end
  begin
     id 3 
     name ltibia
     direction 0.34202 -0.939693 0   
     length 7.84737   
     axis 0 0 20   XYZ
    dof rx
    limits (-10.0 170.0)
  end
  begin
     id 4 
     name lfoot
     direction 0.0790693 -0.217241 0.97291   
     length 2.59747   
     axis -90 7.62852e-016 20   XYZ
    dof rx rz
    limits (-45.0 90.0)
           (-70.0 20.0)
  end
  begin
     id 5 
     name ltoes
     direction 1.53572e-011 -4.21898e-011 1   
     length 1.29919   
     axis -90 7.62852e-016 20   XYZ
    dof rx
    limits (-90.0 20.0)
  end
  begin
     id 6 
     name rhipjoint
     direction -0.602353 -0.708375 0.367935   
     length 2.41867  
     axis 0 0 0  XYZ 
  end
  begin
     id 7 
     name rfemur
     direction -0.34202 -0.939693 0   
     length 6.92065   
     axis 0 0 -20   XYZ
    dof rx ry rz
    limits (-160.0 20.0)
           (-70.0 70.0)
           (-70.0 60.0)
  end
  begin
     id 8 
     name rtibia
     direction -0.34202 -0.939693 0   
     length 7.88883   
     axis 0 0 -20   XYZ
    dof rx
    limits (-10.0 170.0)
 end
 begin
     id 9 
     name rfoot
     direction -0.0768692 -0.211196 0.974416   
     length 2.43714  
     axis -90 -7.62852e-016 -20   XYZ
    dof rx rz
    limits (-45.0 90.0)
           (-20.0 70.0)
  end
  begin
     id 10 
     name rtoes
     direction -1.53575e-011 -4.21933e-011 1   
     length 1.22113   
     axis -90 -7.62852e-016 -20   XYZ
    dof rx
    limits (-90.0 20.0)
  end
  begin
     id 11 
     name lowerback
     direction 0.0197937 0.98943 -0.143655   
     length 2.16931   
     axis 0 0 0   XYZ
    dof rx ry rz
    limits (-20.0 45.0)
           (-30.0 30.0)
           (-30.0 30.0)
  end
  begin
     id 12 
     name upperback
     direction -0.00183968 0.999975 0.00684288   
     length 2.17221   
     axis 0 0 0   XYZ
    dof rx ry rz
    limits (-20.0 45.0)
           (-30.0 30.0)
           (-30.0 30.0)
  end
  begin
     id 13 
     name thorax
     direction -0.00950244 0.997208 0.0740685   
     length 2.22549   
     axis 0 0 0   XYZ
    dof rx ry rz
    limits (-20.0 45.0)
           (-30.0 30.0)
           (-30.0 30.0)
  end
  begin
     id 14 
     name lowerneck
     direction 0.0218238 0.996215 0.0841425   
     length 1.77269   
     axis 0 0 0   XYZ
    dof rx ry rz
    limits (-20.0 45.0)
           (-30.0 30.0)
           (-30.0 30.0)
  end
  begin
     id 15 
     name upperneck
     direction -0.00430652 0.994214 -0.107332   
     length 1.76534   
     axis 0 0 0   XYZ
    dof rx ry rz
    limits (-20.0 45.0)
           (-30.0 30.0)
           (-30.0 30.0)
  end
  begin
     id 16
     name head
     direction -0.00328946 0.998959 -0.0454998  
     length 1.82634  
     axis 0 0 0   XYZ
    dof rx ry rz
    limits (-20.0 45.0)
           (-30.0 30.0)
           (-30.0 30.0)
  end
  begin
     id 17 
     name lclavicle
     direction 0.970962 0.239191 0.00450212  
     length 3.84872  
     axis 0 0 0   XYZ
    dof ry rz
    limits (-20.0 10.0)
           (0.0 20.0)
  end
  begin
     id 18 
     name lhumerus
     direction 1 -4.48966e-011 5.74696e-028   
     length 5.22771   
     axis 180 -30 -90   XYZ
    dof rx ry rz
    limits (-60.0 90.0)
           (-90.0 90.0)
           (-90.0 90.0)
  end
  begin
     id 19
     name lradius
     direction 1 -4.4896e-011 4.25109e-027   
     length 3.45251   
     axis 180 -30 -90   XYZ
    dof rx
    limits (-10.0 170.0)
  end
  begin
     id 20
     name lwrist
     direction 1 -4.48971e-011 1.15382e-027   
     length 1.72626   
     axis -5.52449e-016 90 90   XYZ
    dof ry
    limits (-180.0 0.0)
 end
  begin
     id 21 
     name lhand
     direction 1 -4.49034e-011 2.30765e-027   
     length 0.552119   
     axis -1.47248e-015 90 90   XYZ
    dof rx rz
    limits (-90.0 90.0)
           (-45.0 45.0)
  end
  begin
     id 22 
     name lfingers
     direction 1 -4.48951e-011 4.61529e-027   
     length 0.445133   
     axis -2.94495e-015 90 90   XYZ
    dof rx
    limits (0.0 90.0)
  end
  begin
     id 23
     name lthumb
     direction 0.707107 -6.34991e-011 0.707107   
     length 0.639124   
     axis -90 45 2.85299e-015   XYZ
    dof rx rz
    limits (-45.0 45.0)
           (-45.0 45.0)
  end
  begin
     id 24 
     name rclavicle
     direction -0.97424 0.222511 -0.0366699   
     length 3.73439  
     axis 0 0 0   XYZ 
    dof ry rz
    limits (-10.0 20.0)
           (-20.0 0.0)
  end
  begin
     id 25 
     name rhumerus
     direction -1 -4.48956e-011 -4.97258e-028  
     length 5.2398   
     axis 180 30 90   XYZ
    dof rx ry rz
    limits (-90.0 60.0)
           (-90.0 90.0)
           (-90.0 90.0)
  end
  begin
     id 26 
     name rradius
     direction -1 -4.4897e-011 -1.72611e-027   
     length 3.48042   
     axis 180 30 90   XYZ
    dof rx
    limits (-10.0 170.0)
  end
  begin
     id 27 
     name rwrist
     direction -1 -4.48976e-011 1.15382e-027   
     length 1.74021   
     axis -5.52449e-016 -90 -90   XYZ
    dof ry
    limits (-180.0 0.0)
  end
  begin
     id 28
     name rhand
     direction -1 -4.48963e-011 2.30765e-027   
     length 0.618713   
     axis -1.47248e-015 -90 -90   XYZ
    dof rx rz
    limits (-90.0 90.0)
           (-45.0 45.0)
  end
  begin
     id 29
     name rfingers
     direction -1 -4.4888e-011 4.61529e-027   
     length 0.498823   
     axis -2.94495e-015 -90 -90   XYZ
    dof rx
    limits (0.0 90.0)
  end
  begin
     id 30
     name rthumb
     direction -0.707107 -6.34968e-011 0.707107   
     length 0.716213   
     axis -90 -45 -2.85299e-015   XYZ
    dof rx rz
    limits (-45.0 45.0)
           (-45.0 45.0)
  end
:hierarchy
  begin
    root lhipjoint rhipjoint lowerback
    lhipjoint lfemur
    lfemur ltibia
    ltibia lfoot
    lfoot ltoes
    rhipjoint rfemur
    rfemur rtibia
    rtibia rfoot
    rfoot rtoes
    lowerback upperback
    upperback thorax
    thorax lowerneck lclavicle rclavicle
    lowerneck upperneck
    upperneck head
    lclavicle lhumerus
    lhumerus lradius
    lradius lwrist
    lwrist lhand lthumb
    lhand lfingers
    rclavicle rhumerus
    rhumerus rradius
    rradius rwrist
    rwrist rhand rthumb
    rhand rfingers
  end

#!OML:ASF G:\JayActor3\Patient Classification 1\Patient 1\Session 5\male.ASF
:FULLY-SPECIFIED
:DEGREES
319
root -31.733 17.9106 -6.07243 127.752 -86.0204 -130.331
lowerback 2.6767 -0.606568 4.62025
upperback 1.25902 -0.713787 -0.021492
thorax -0.262579 -0.347882 -2.59183
lowerneck -8.04117 0.734305 1.89347
upperneck 12.135 0.430819 1.69767
head 4.96979 0.369846 0.241725
rclavicle -2.63079e-015 4.37326e-015
rhumerus -33.949 -8.69906 -84.6834
rradius 26.6755
rwrist 5.19618
rhand -17.4303 -10.6036
rfingers 7.12502
rthumb 8.82014 -40.3992
lclavicle -2.63079e-015 4.37326e-015
lhumerus -36.0286 10.0098 80.2741
lradius 23.4412
lwrist 15.0776
lhand -18.4101 13.0328
lfingers 7.12502
lthumb 7.87457 42.8661
rfemur -2.08457 0.120099 27.685
rtibia 31.1122
rfoot -2.02722 -10.4503
rtoes -8.68245
lfemur -14.9655 8.68177 -13.4354
ltibia 19.2199
lfoot 9.3275 0.0972995
ltoes -16.3412
320
root -31.6566 17.8996 -6.08775 127.87 -86.1693 -130.553
lowerback 2.67665 -0.594637 4.51906
upperback 1.28897 -0.701235 -0.0595025
thorax -0.230196 -0.340636 -2.57475
lowerneck -8.08688 0.716234 1.8572
upperneck 12.3203 0.403117 1.69827
head 5.03468 0.355782 0.246564
rclavicle -1.01225e-014 -6.16232e-015
rhumerus -33.9718 -8.81004 -84.5944
rradius 26.5319
rwrist 5.33458
rhand -17.4154 -10.6131
rfingers 7.12502
rthumb 8.83447 -40.4082
lclavicle -1.01225e-014 -6.16232e-015
lhumerus -36.1205 10.2318 80.126
lradius 23.1711
lwrist 14.9019
lhand -18.4698 12.9338
lfingers 7.12502
lthumb 7.81691 42.7693
rfemur -2.39816 0.0754401 27.5707
rtibia 31.4692
rfoot -2.31502 -10.0869
rtoes -8.16035
lfemur -14.589 8.51476 -13.4463
ltibia 20.1024
lfoot 7.5674 -0.11644
ltoes -16.5248
321
root -31.5824 17.8893 -6.10155 128.13 -86.2912 -130.903
lowerback 2.62588 -0.576353 4.44442
upperback 1.32799 -0.682415 -0.0937692
thorax -0.159859 -0.329254 -2.56941
lowerneck -8.15361 0.698888 1.82135
upperneck 12.5177 0.376155 1.69462
head 5.10694 0.342016 0.250144
rclavicle -4.37947e-016 -4.96962e-015
rhumerus -33.9719 -8.91736 -84.5057
rradius 26.3772
rwrist 5.45435
rhand -17.4058 -10.6211
rfingers 7.12502
rthumb 8.84374 -40.4157
lclavicle -4.37947e-016 -4.96962e-015
lhumerus -36.1911 10.4859 79.967
lradius 22.8814
lwrist 14.7019
lhand -18.5161 12.8283
lfingers 7.12502
lthumb 7.77223 42.6654
rfemur -2.70611 0.0189767 27.4543
rtibia 31.7943
rfoot -2.53304 -9.69526
rtoes -7.64618
lfemur -14.241 8.44425 -13.4666
ltibia 21.1531
lfoot 5.93792 -0.301133
ltoes -17.0031
322
root -31.5099 17.8795 -6.11382 128.499 -86.3864 -131.346
lowerback 2.53112 -0.553907 4.39553
upperback 1.37036 -0.659608 -0.12372
thorax -0.0613395 -0.315157 -2.57456
lowerneck -8.23364 0.68344 1.79236
upperneck 12.7227 0.351365 1.68372
head 5.18398 0.329245 0.250529
rclavicle 1.31477e-014 -1.05356e-014
rhumerus -33.9596 -9.02191 -84.4181
rradius 26.2193
rwrist 5.55102
rhand -17.4134 -10.6222
rfingers 7.12502
rthumb 8.8364 -40.4172
lclavicle 1.31477e-014 -1.05356e-014
lhumerus -36.2545 10.7543 79.8021
lradius 22.5887
lwrist 14.4942
lhand -18.5366 12.7563
lfingers 7.12502
lthumb 7.75241 42.5941
rfemur -3.02019 -0.0595304 27.3395
rtibia 32.0981
rfoot -2.67452 -9.30312
rtoes -7.21796
lfemur -13.9207 8.46925 -13.4949
ltibia 22.3481
lfoot 4.48844 -0.409678
ltoes -17.7907
323
root -31.4386 17.8696 -6.12454 128.833 -86.4527 -131.738
lowerback 2.40051 -0.528932 4.37882
upperback 1.41424 -0.63443 -0.145534
thorax 0.058768 -0.29928 -2.5897
lowerneck -8.32534 0.669437 1.76128
upperneck 12.9332 0.328822 1.67069
head 5.2648 0.31739 0.250757
rclavicle -1.62569e-014 -8.74653e-015
rhumerus -33.9354 -9.11193 -84.3329
rradius 26.0601
rwrist 5.61376
rhand -17.4347 -10.6293
rfingers 7.12502
rthumb 8.81584 -40.4252
lclavicle -1.62569e-014 -8.74653e-015
lhumerus -36.3115 11.0401 79.6355
lradius 22.2951
lwrist 14.2749
lhand -18.528 12.7275
lfingers 7.12502
lthumb 7.76078 42.565
rfemur -3.34939 -0.170463 27.2364
rtibia 32.3967
rfoot -2.75162 -8.92338
rtoes -6.88716
lfemur -13.6229 8.58837 -13.5236
ltibia 23.6434
lfoot 3.2677 -0.429941
ltoes -18.9172
324
root -31.3679 17.8605 -6.13421 129.107 -86.4901 -132.056
lowerback 2.24632 -0.502425 4.38592
upperback 1.4556 -0.607773 -0.158344
thorax 0.189522 -0.282353 -2.60905
lowerneck -8.41259 0.658169 1.74159
upperneck 13.14 0.310091 1.64764
head 5.3439 0.307128 0.246199
rclavicle 6.55679e-015 7.7526e-015
rhumerus -33.9113 -9.20866 -84.2422
rradius 25.9086
rwrist 5.67788
rhand -17.4556 -10.6275
rfingers 7.12502
rthumb 8.79574 -40.4242
lclavicle 6.55679e-015 7.7526e-015
lhumerus -36.3726 11.3282 79.469
lradius 22.0091
lwrist 14.0559
lhand -18.4956 12.7211
lfingers 7.12502
lthumb 7.79202 42.5575
rfemur -3.69399 -0.30006 27.1548
rtibia 32.6942
rfoot -2.76421 -8.58146
rtoes -6.73094
lfemur -13.3091 8.7492 -13.531
ltibia 25.0139
lfoot 2.23724 -0.302778
ltoes -19.9284
325
root -31.2971 17.851 -6.14282 129.328 -86.5075 -132.313
lowerback 2.09106 -0.478348 4.40785
upperback 1.48715 -0.583863 -0.16356
thorax 0.310577 -0.267042 -2.62868
lowerneck -8.49268 0.653097 1.73261
upperneck 13.3481 0.29938 1.61724
head 5.42235 0.300636 0.238088
rclavicle -7.29602e-015 8.34896e-015
rhumerus -33.897 -9.30154 -84.1494
rradius 25.7687
rwrist 5.73314
rhand -17.4922 -10.6219
rfingers 7.12502
rthumb 8.76042 -40.4201
lclavicle -7.29602e-015 8.34896e-015
lhumerus -36.4499 11.6135 79.3047
lradius 21.7408
lwrist 13.847
lhand -18.4621 12.7193
lfingers 7.12502
lthumb 7.82438 42.5545
rfemur -4.05417 -0.440323 27.091
rtibia 32.9968
rfoot -2.75904 -8.26619
rtoes -6.58689
lfemur -12.9984 8.95358 -13.5339
ltibia 26.4317
lfoot 1.41 -0.0784615
ltoes -21.1709
326
root -31.2259 17.8416 -6.1511 129.482 -86.501 -132.495
lowerback 1.94559 -0.45485 4.44017
upperback 1.50537 -0.559765 -0.158846
thorax 0.412515 -0.252173 -2.64366
lowerneck -8.56064 0.650541 1.72654
upperneck 13.5549 0.291907 1.5867
head 5.49843 0.295619 0.2296
rclavicle 3.21161e-015 6.75868e-015
rhumerus -33.8969 -9.40181 -84.0459
rradius 25.6417
rwrist 5.8149
rhand -17.5027 -10.6237
rfingers 7.12502
rthumb 8.75024 -40.4223
lclavicle 3.21161e-015 6.75868e-015
lhumerus -36.5455 11.8875 79.1452
lradius 21.4896
lwrist 13.6513
lhand -18.431 12.7101
lfingers 7.12502
lthumb 7.85436 42.5442
rfemur -4.42766 -0.567243 27.0579
rtibia 33.3011
rfoot -2.75635 -7.98626
rtoes -6.38964
lfemur -12.6849 9.17791 -13.5186
ltibia 27.8771
lfoot 0.76118 0.238275
ltoes -22.4799
327
root -31.1541 17.8324 -6.15928 129.702 -86.4855 -132.74
lowerback 1.81647 -0.434971 4.46329
upperback 1.50829 -0.539382 -0.149995
thorax 0.489389 -0.239974 -2.64887
lowerneck -8.61016 0.655029 1.72417
upperneck 13.7609 0.292844 1.56159
head 5.57124 0.294955 0.222708
rclavicle -1.06691e-015 6.65929e-015
rhumerus -33.9158 -9.49571 -83.9412
rradius 25.5267
rwrist 5.90528
rhand -17.524 -10.6064
rfingers 7.12502
rthumb 8.72967 -40.4059
lclavicle -1.06691e-015 6.65929e-015
lhumerus -36.6677 12.146 78.9866
lradius 21.2594
lwrist 13.4723
lhand -18.4076 12.6827
lfingers 7.12502
lthumb 7.87693 42.516
rfemur -4.8089 -0.6658 27.0407
rtibia 33.6046
rfoot -2.76525 -7.74648
rtoes -6.11773
lfemur -12.3565 9.39811 -13.4983
ltibia 29.3338
lfoot 0.246759 0.645148
ltoes -23.5537
